# xmcd
#
# Track frame offsets:
#	183
#	11755
#	39530
#	54765
#	70505
#	88833
#	104783
#	117273
#	134473
#	151515
#	167953
#	182338
#	200140
#	214395
#	226088
#	246318
#	265878
#	279393
#	302333
#	318473
#	332170
#
# Disc length: 4681
#
# Revision: 3
# Processed by: cddbd v1.5.1PL0 Copyright (c) Steve Scherf et al.
# Submitted via: ExactAudioCopy v0.90b4
# Normalized: r2:DSETVAR1
#
DISCID=28124715
DTITLE=Various Artist - The Ultimate Line Dancing Album
DYEAR=1900
DGENRE=
TTITLE0=The Woolpackers - Hillbilly Rock Hillbilly Roll
TTITLE1=Brooks and Dunn - Boot Scootin' Boogie
TTITLE2=Billy Ray Cyrus - Achy Breaky Heart
TTITLE3=Mary Chapin Carpenter - I Feel Lucky
TTITLE4=Alan Jackson - Chatahoochee
TTITLE5=Dolly Parton - Romeo
TTITLE6=Dwight Yoakam - Honky Tonk Man
TTITLE7=The Tractors - Baby Likes To Rock It
TTITLE8=Joe Diffie - Honky Honky Tonk Attitude
TTITLE9=Sunset Stampede - Line King
TTITLE10=Rednex - Cotton Eye Joe
TTITLE11=The Grid - Swamp Thing
TTITLE12=John Michael Montgomery - Life's A Dance
TTITLE13=Martina McBride - My Baby loves Me
TTITLE14=Steve Earle - Copperhead Road
TTITLE15=Pam Tillis - Cleopatra, Queen Of Denial
TTITLE16=John Anderson - Money In The Bank
TTITLE17=Ronnie McDowell - Funky Cowboy
TTITLE18=George Strait - Adalida
TTITLE19=Lorrie Morgan - 1-800 Use To Be
TTITLE20=Wynonna - No One Else On Earth
EXTD=
EXTT0=
EXTT1=
EXTT2=
EXTT3=
EXTT4=
EXTT5=
EXTT6=
EXTT7=
EXTT8=
EXTT9=
EXTT10=
EXTT11=
EXTT12=
EXTT13=
EXTT14=
EXTT15=
EXTT16=
EXTT17=
EXTT18=
EXTT19=
EXTT20=
PLAYORDER=
